<svg xmlns="http://www.w3.org/2000/svg">


    <symbol id="back" viewBox="0 0 12.3 11.5">
        <path d="M11.4,4.3H4.9l2.1-2.1C7.2,2,6.9,1.4,6.3,0.8C5.7,0.2,5.1-0.1,4.9,0L0.6,4.4C0.3,4.6,0,5.1,0,5.8
            c0,0.7,0.3,1.3,0.7,1.5l4.3,4.3c0.2,0.2,0.8-0.2,1.4-0.8c0.6-0.6,0.9-1.2,0.8-1.4L5,7.3h6.4c0.5,0,0.9-0.7,0.9-1.5
            S11.9,4.3,11.4,4.3z"/>
    </symbol>


    <symbol id="forward" viewBox="0 0 12.3 11.5">
        <path d="M0.9,4.3h6.5L5.2,2.2C5.1,2,5.4,1.4,6,0.8C6.6,0.2,7.2-0.1,7.4,0l4.3,4.3c0.4,0.2,0.6,0.8,0.6,1.4
            c0,0.7-0.3,1.3-0.7,1.5l-4.3,4.3c-0.2,0.2-0.8-0.2-1.4-0.8c-0.6-0.6-0.9-1.2-0.8-1.4l2.1-2.1H0.9C0.4,7.3,0,6.6,0,5.8
            S0.4,4.3,0.9,4.3z"/>
    </symbol>


    <symbol id="refresh" viewBox="0 0 13.9 14.7">
        <path d="M13.9,6.6L13.9,0l-2.2,2.3c-0.9-0.8-2.1-1.4-3.3-1.6C4.6-0.1,0.9,2.4,0.1,6.3c-0.7,3.8,1.8,7.5,5.6,8.3
            c0.4,0.1,0.9,0.1,1.3,0.1c2.5,0,4.8-1.3,6.1-3.5l-2.8-1.6c-0.8,1.4-2.4,2.1-4,1.8c-1-0.2-1.9-0.8-2.4-1.6S3.1,7.9,3.3,6.9
            c0.4-2.1,2.4-3.4,4.5-3C8.4,4,9,4.2,9.5,4.6L7.3,6.6H13.9z"/>
    </symbol>


    <symbol id="menu" viewBox="0 0 14 13">
        <g>
            <path d="M14,1.5C14,2.3,13.6,3,13.1,3H0.9C0.4,3,0,2.3,0,1.5l0,0C0,0.7,0.4,0,0.9,0h12.3C13.6,0,14,0.7,14,1.5
                L14,1.5z"/>
            <path d="M14,6.5C14,7.3,13.6,8,13.1,8H0.9C0.4,8,0,7.3,0,6.5l0,0C0,5.7,0.4,5,0.9,5h12.3C13.6,5,14,5.7,14,6.5
                L14,6.5z"/>
            <path d="M14,11.5c0,0.8-0.4,1.5-0.9,1.5H0.9C0.4,13,0,12.3,0,11.5l0,0C0,10.7,0.4,10,0.9,10h12.3
                C13.6,10,14,10.7,14,11.5L14,11.5z"/>
        </g>
    </symbol>


    <symbol id="new-tab" viewBox="0 0 13.8 13.8">
        <path d="M12.9,5.3H8.5V0.9C8.5,0.4,7.6,0,6.9,0S5.3,0.4,5.3,0.9v4.4H0.9C0.4,5.3,0,6.2,0,6.9c0,0.7,0.4,1.6,0.9,1.6
	h4.4v4.4c0,0.5,0.9,0.9,1.6,0.9s1.6-0.4,1.6-0.9V8.5h4.4c0.5,0,0.9-0.9,0.9-1.6C13.8,6.2,13.4,5.3,12.9,5.3z"/>
    </symbol>

    <symbol id="restore" viewBox="0 0 12.7 10.6">
        <rect x="3.8" y="0.5" fill="#FFFFFF" stroke="#D1D3D4" stroke-miterlimit="10" width="8.4" height="5.7"/>
        <rect x="1" y="3.4" fill="#FFFFFF" stroke="#D1D3D4" stroke-width="2" stroke-miterlimit="10" width="8.4" height="6.1"/>
    </symbol>

    <symbol id="maximize" viewBox="0 0 12.2 11.2">
        <g>
            <g>
                <path d="M12.2,8.1H1.7V0h10.4V8.1z M3.7,6.1h6.4V2H3.7V6.1z"/>
            </g>
            <g>
                <rect fill="#DBE5F6" x="1" y="4.7" width="5.8" height="5.5"/>
                <path d="M7.8,11.2H0V3.7h7.8V11.2z M2,9.2h3.8V5.7H2V9.2z"/>
            </g>
        </g>
    </symbol>

    <symbol id="close" viewBox="0 0 11.1 11.1">
        <path d="M10.9,8.6L7.8,5.5l3.1-3.1c0.3-0.3,0-1.2-0.5-1.7C9.9,0.1,9-0.2,8.7,0.1L5.5,3.3L2.4,0.2
        c-0.4-0.4-1.3,0-1.8,0.5C0.1,1.2-0.2,2.1,0.2,2.4l3.1,3.1L0.1,8.7c-0.3,0.3,0,1.2,0.5,1.7c0.5,0.5,1.4,0.9,1.7,0.5l3.1-3.1l3.1,3.1
        c0.4,0.4,1.3,0,1.8-0.5C10.9,9.9,11.2,9,10.9,8.6z"/>
    </symbol>

    <symbol id="minimize" viewBox="0 0 12 3">
        <path d="M12,1.5C12,2.3,11.6,3,11.1,3H0.9C0.4,3,0,2.3,0,1.5l0,0C0,0.7,0.4,0,0.9,0h10.3C11.6,0,12,0.7,12,1.5
        L12,1.5z"/>
    </symbol>

    <symbol id="overview" viewBox="0 0 6.8 9.5">
        <path d="M6.7,4.7c0.1-0.2,0.1-0.3,0-0.4L2.4,0C2.3-0.1,1.6,0.2,1.1,0.8C0.6,1.2,0.4,1.6,0.3,1.9C0.1,1.9,0,2,0,2.1
	l0.1,5.4c0,0.1,0.1,0.1,0.2,0.2c0.1,0.3,0.4,0.7,0.7,1.1c0.6,0.6,1.2,0.9,1.4,0.7l4.3-4.3C6.8,5.1,6.8,4.9,6.7,4.7z"/>
    </symbol>

    <symbol id="ellipsis-big" viewBox="0 0 23.9 5.6">
        <path d="M0,2.8c0-0.9,0.2-1.6,0.7-2.1C1.2,0.2,1.9,0,2.8,0c0.9,0,1.6,0.2,2.1,0.7c0.5,0.5,0.8,1.2,0.8,2.1
            c0,0.8-0.3,1.5-0.8,2C4.3,5.3,3.6,5.6,2.8,5.6c-0.8,0-1.5-0.3-2-0.8C0.2,4.3,0,3.6,0,2.8z"/>
        <path d="M9.1,2.8c0-0.9,0.2-1.6,0.7-2.1c0.5-0.5,1.2-0.7,2-0.7c0.9,0,1.6,0.2,2.1,0.7c0.5,0.5,0.8,1.2,0.8,2.1
            c0,0.8-0.3,1.5-0.8,2c-0.5,0.5-1.2,0.8-2.1,0.8c-0.8,0-1.5-0.3-2-0.8C9.4,4.3,9.1,3.6,9.1,2.8z"/>
        <path d="M18.3,2.8c0-0.9,0.2-1.6,0.7-2.1C19.5,0.2,20.2,0,21,0c0.9,0,1.6,0.2,2.1,0.7c0.5,0.5,0.8,1.2,0.8,2.1
            c0,0.8-0.3,1.5-0.8,2c-0.5,0.5-1.2,0.8-2.1,0.8c-0.8,0-1.5-0.3-2-0.8C18.5,4.3,18.3,3.6,18.3,2.8z"/>
    </symbol>


    <symbol id="ellipsis-small" viewBox="0 0 13.9 3.2">
        <path d="M13.9,1.6c0,0.5-0.1,0.9-0.4,1.2c-0.3,0.3-0.7,0.4-1.2,0.4c-0.5,0-0.9-0.1-1.2-0.4c-0.3-0.3-0.4-0.7-0.4-1.2
            c0-0.5,0.1-0.9,0.4-1.2C11.4,0.1,11.8,0,12.3,0c0.5,0,0.9,0.1,1.2,0.4C13.7,0.7,13.9,1.1,13.9,1.6z"/>
        <path d="M8.5,1.6c0,0.5-0.1,0.9-0.4,1.2C7.8,3.1,7.4,3.2,7,3.2C6.4,3.2,6,3.1,5.7,2.8C5.5,2.5,5.3,2.1,5.3,1.6
            c0-0.5,0.1-0.9,0.4-1.2C6,0.1,6.4,0,7,0c0.5,0,0.9,0.1,1.2,0.4C8.4,0.7,8.5,1.1,8.5,1.6z"/>
        <path d="M3.2,1.6c0,0.5-0.1,0.9-0.4,1.2C2.5,3.1,2.1,3.2,1.7,3.2c-0.5,0-0.9-0.1-1.2-0.4C0.1,2.5,0,2.1,0,1.6
            c0-0.5,0.1-0.9,0.4-1.2C0.7,0.1,1.1,0,1.7,0c0.5,0,0.9,0.1,1.2,0.4C3.1,0.7,3.2,1.1,3.2,1.6z"/>
    </symbol>

    <symbol id="ellipsis-vertical" viewBox="0 0 3.2 13.9">
        <path d="M1.6,0c0.5,0,0.9,0.1,1.2,0.4c0.3,0.3,0.4,0.7,0.4,1.2c0,0.5-0.1,0.9-0.4,1.2C2.5,3.1,2.1,3.2,1.6,3.2
            c-0.5,0-0.9-0.1-1.2-0.4C0.1,2.5,0,2.1,0,1.6c0-0.5,0.1-0.9,0.4-1.2C0.7,0.1,1.1,0,1.6,0z"/>
        <path d="M1.6,5.3c0.5,0,0.9,0.1,1.2,0.4C3.1,6,3.2,6.4,3.2,6.9c0,0.5-0.1,0.9-0.4,1.2C2.5,8.4,2.1,8.5,1.6,8.5
            c-0.5,0-0.9-0.1-1.2-0.4C0.1,7.8,0,7.4,0,6.9C0,6.4,0.1,6,0.4,5.7C0.7,5.4,1.1,5.3,1.6,5.3z"/>
        <path d="M1.6,10.6c0.5,0,0.9,0.1,1.2,0.4c0.3,0.3,0.4,0.7,0.4,1.2c0,0.5-0.1,0.9-0.4,1.2c-0.3,0.3-0.7,0.4-1.2,0.4
            c-0.5,0-0.9-0.1-1.2-0.4C0.1,13.1,0,12.7,0,12.2c0-0.5,0.1-0.9,0.4-1.2C0.7,10.7,1.1,10.6,1.6,10.6z"/>
    </symbol>







</svg>
